<svg id="visual" viewBox="0 0 900 600" width="900" height="600" xmlns="http://www.w3.org/2000/svg" xmlns:xlink="http://www.w3.org/1999/xlink" version="1.1"><path d="M0 43L13.7 49C27.3 55 54.7 67 82 72C109.3 77 136.7 75 163.8 70C191 65 218 57 245.2 63C272.3 69 299.7 89 327 89C354.3 89 381.7 69 409 64C436.3 59 463.7 69 491 72C518.3 75 545.7 71 573 70C600.3 69 627.7 71 654.8 79C682 87 709 101 736.2 100C763.3 99 790.7 83 818 70C845.3 57 872.7 47 886.3 42L900 37L900 0L886.3 0C872.7 0 845.3 0 818 0C790.7 0 763.3 0 736.2 0C709 0 682 0 654.8 0C627.7 0 600.3 0 573 0C545.7 0 518.3 0 491 0C463.7 0 436.3 0 409 0C381.7 0 354.3 0 327 0C299.7 0 272.3 0 245.2 0C218 0 191 0 163.8 0C136.7 0 109.3 0 82 0C54.7 0 27.3 0 13.7 0L0 0Z" fill="#6198ff"></path><path d="M0 205L13.7 220C27.3 235 54.7 265 82 274C109.3 283 136.7 271 163.8 269C191 267 218 275 245.2 278C272.3 281 299.7 279 327 283C354.3 287 381.7 297 409 284C436.3 271 463.7 235 491 232C518.3 229 545.7 259 573 279C600.3 299 627.7 309 654.8 300C682 291 709 263 736.2 240C763.3 217 790.7 199 818 208C845.3 217 872.7 253 886.3 271L900 289L900 35L886.3 40C872.7 45 845.3 55 818 68C790.7 81 763.3 97 736.2 98C709 99 682 85 654.8 77C627.7 69 600.3 67 573 68C545.7 69 518.3 73 491 70C463.7 67 436.3 57 409 62C381.7 67 354.3 87 327 87C299.7 87 272.3 67 245.2 61C218 55 191 63 163.8 68C136.7 73 109.3 75 82 70C54.7 65 27.3 53 13.7 47L0 41Z" fill="#3c80ff"></path><path d="M0 373L13.7 387C27.3 401 54.7 429 82 420C109.3 411 136.7 365 163.8 345C191 325 218 331 245.2 334C272.3 337 299.7 337 327 346C354.3 355 381.7 373 409 365C436.3 357 463.7 323 491 322C518.3 321 545.7 353 573 367C600.3 381 627.7 377 654.8 375C682 373 709 373 736.2 362C763.3 351 790.7 329 818 329C845.3 329 872.7 351 886.3 362L900 373L900 287L886.3 269C872.7 251 845.3 215 818 206C790.7 197 763.3 215 736.2 238C709 261 682 289 654.8 298C627.7 307 600.3 297 573 277C545.7 257 518.3 227 491 230C463.7 233 436.3 269 409 282C381.7 295 354.3 285 327 281C299.7 277 272.3 279 245.2 276C218 273 191 265 163.8 267C136.7 269 109.3 281 82 272C54.7 263 27.3 233 13.7 218L0 203Z" fill="#0066ff"></path><path d="M0 535L13.7 540C27.3 545 54.7 555 82 549C109.3 543 136.7 521 163.8 511C191 501 218 503 245.2 509C272.3 515 299.7 525 327 532C354.3 539 381.7 543 409 545C436.3 547 463.7 547 491 546C518.3 545 545.7 543 573 543C600.3 543 627.7 545 654.8 542C682 539 709 531 736.2 530C763.3 529 790.7 535 818 531C845.3 527 872.7 513 886.3 506L900 499L900 371L886.3 360C872.7 349 845.3 327 818 327C790.7 327 763.3 349 736.2 360C709 371 682 371 654.8 373C627.7 375 600.3 379 573 365C545.7 351 518.3 319 491 320C463.7 321 436.3 355 409 363C381.7 371 354.3 353 327 344C299.7 335 272.3 335 245.2 332C218 329 191 323 163.8 343C136.7 363 109.3 409 82 418C54.7 427 27.3 399 13.7 385L0 371Z" fill="#0059dd"></path><path d="M0 601L13.7 601C27.3 601 54.7 601 82 601C109.3 601 136.7 601 163.8 601C191 601 218 601 245.2 601C272.3 601 299.7 601 327 601C354.3 601 381.7 601 409 601C436.3 601 463.7 601 491 601C518.3 601 545.7 601 573 601C600.3 601 627.7 601 654.8 601C682 601 709 601 736.2 601C763.3 601 790.7 601 818 601C845.3 601 872.7 601 886.3 601L900 601L900 497L886.3 504C872.7 511 845.3 525 818 529C790.7 533 763.3 527 736.2 528C709 529 682 537 654.8 540C627.7 543 600.3 541 573 541C545.7 541 518.3 543 491 544C463.7 545 436.3 545 409 543C381.7 541 354.3 537 327 530C299.7 523 272.3 513 245.2 507C218 501 191 499 163.8 509C136.7 519 109.3 541 82 547C54.7 553 27.3 543 13.7 538L0 533Z" fill="#004cbb"></path></svg>